{
    "asset" : {
        "generator" : "Khronos glTF Blender I/O v1.6.16",
        "version" : "2.0"
    },
    "scene" : 0,
    "scenes" : [
        {
            "name" : "Scene",
            "nodes" : [
                0
            ]
        }
    ],
    "nodes" : [
        {
            "mesh" : 0,
            "name" : "obj_0",
            "rotation" : [
                0.7071068286895752,
                0,
                0,
                0.7071067094802856
            ]
        }
    ],
    "materials" : [
        {
            "doubleSided" : true,
            "name" : "color_12568524",
            "pbrMetallicRoughness" : {
                "baseColorFactor" : [
                    0.7490196228027344,
                    0.7803921699523926,
                    0.800000011920929,
                    1
                ],
                "metallicFactor" : 0
            }
        },
        {
            "doubleSided" : true,
            "name" : "color_16448250",
            "pbrMetallicRoughness" : {
                "baseColorFactor" : [
                    0.9803921580314636,
                    0.9803921580314636,
                    0.9803921580314636,
                    1
                ],
                "metallicFactor" : 0
            }
        }
    ],
    "meshes" : [
        {
            "name" : "obj_0",
            "primitives" : [
                {
                    "attributes" : {
                        "POSITION" : 0,
                        "NORMAL" : 1
                    },
                    "indices" : 2,
                    "material" : 0
                },
                {
                    "attributes" : {
                        "POSITION" : 3,
                        "NORMAL" : 4
                    },
                    "indices" : 5,
                    "material" : 1
                }
            ]
        }
    ],
    "accessors" : [
        {
            "bufferView" : 0,
            "componentType" : 5126,
            "count" : 614,
            "max" : [
                28,
                8,
                -13
            ],
            "min" : [
                20,
                0,
                -21
            ],
            "type" : "VEC3"
        },
        {
            "bufferView" : 1,
            "componentType" : 5126,
            "count" : 614,
            "type" : "VEC3"
        },
        {
            "bufferView" : 2,
            "componentType" : 5123,
            "count" : 3672,
            "type" : "SCALAR"
        },
        {
            "bufferView" : 3,
            "componentType" : 5126,
            "count" : 762,
            "max" : [
                13,
                14,
                -10
            ],
            "min" : [
                -7,
                -6,
                -30
            ],
            "type" : "VEC3"
        },
        {
            "bufferView" : 4,
            "componentType" : 5126,
            "count" : 762,
            "type" : "VEC3"
        },
        {
            "bufferView" : 5,
            "componentType" : 5123,
            "count" : 4560,
            "type" : "SCALAR"
        }
    ],
    "bufferViews" : [
        {
            "buffer" : 0,
            "byteLength" : 7368,
            "byteOffset" : 0
        },
        {
            "buffer" : 0,
            "byteLength" : 7368,
            "byteOffset" : 7368
        },
        {
            "buffer" : 0,
            "byteLength" : 7344,
            "byteOffset" : 14736
        },
        {
            "buffer" : 0,
            "byteLength" : 9144,
            "byteOffset" : 22080
        },
        {
            "buffer" : 0,
            "byteLength" : 9144,
            "byteOffset" : 31224
        },
        {
            "buffer" : 0,
            "byteLength" : 9120,
            "byteOffset" : 40368
        }
    ],
    "buffers" : [
        {
            "byteLength" : 49488,
            "uri" : "data:application/octet-stream;base64,"
        }
    ]
}
