{"accessors" : [{"bufferView" : 0, "byteOffset" : 0, "componentType" : 5123, "count" : 55914, "type" : "SCALAR", "max" : [49979], "min" : [0]}, {"bufferView" : 1, "byteOffset" : 0, "componentType" : 5126, "count" : 49980, "type" : "VEC3", "max" : [28.81800079345703, 22, 3.5999999046325684], "min" : [-56.321998596191406, -55, 0], "name" : "POSITION"}], "asset" : {"generator" : "Aspose.3D 22.1", "version" : "2.0"}, "buffers" : [{"uri" : "data:application/octet-stream;base64,", "byteLength" : 782804}], "bufferViews" : [{"buffer" : 0, "byteOffset" : 0, "byteLength" : 111828, "target" : 34963}, {"buffer" : 0, "byteOffset" : 111832, "byteLength" : 670968, "byteStride" : 12, "target" : 34962}], "meshes" : [{"primitives" : [{"attributes" : {"POSITION" : 1}, "indices" : 0, "mode" : 4}], "name" : ""}], "nodes" : [{"mesh" : 0, "name" : "group_0_14541540"}], "scene" : 0, "scenes" : [{"nodes" : [0]}]}