{
  "accessors": [
    {
      "bufferView": 1,
      "componentType": 5126,
      "count": 65532,
      "max": [
        0.12469423562288284,
        0.21248340606689453,
        0.07138744741678238
      ],
      "min": [
        -0.04143809154629707,
        -0.07791385054588318,
        -0.062154803425073624
      ],
      "type": "VEC3"
    },
    {
      "bufferView": 1,
      "byteOffset": 786384,
      "componentType": 5126,
      "count": 65532,
      "max": [
        0.9998215436935425,
        0.9999142289161682,
        0.9999922513961792
      ],
      "min": [
        -0.9989866018295288,
        -0.999975860118866,
        -0.9997373223304749
      ],
      "type": "VEC3"
    },
    {
      "bufferView": 2,
      "componentType": 5126,
      "count": 65532,
      "max": [
        1.0,
        1.0,
        1.0,
        1.0
      ],
      "min": [
        0.0,
        0.0,
        0.0,
        1.0
      ],
      "type": "VEC4"
    },
    {
      "bufferView": 0,
      "componentType": 5125,
      "count": 348570,
      "type": "SCALAR"
    },
    {
      "bufferView": 1,
      "byteOffset": 1572768,
      "componentType": 5126,
      "count": 64756,
      "max": [
        0.12538565695285797,
        0.21178509294986725,
        0.042033351957798004
      ],
      "min": [
        -0.04377968981862068,
        -0.07791385054588318,
        -0.06324556469917297
      ],
      "type": "VEC3"
    },
    {
      "bufferView": 1,
      "byteOffset": 2349840,
      "componentType": 5126,
      "count": 64756,
      "max": [
        0.9999637007713318,
        0.9998312592506409,
        0.999994695186615
      ],
      "min": [
        -0.999963641166687,
        -0.9998502731323242,
        -0.9999942779541016
      ],
      "type": "VEC3"
    },
    {
      "bufferView": 2,
      "byteOffset": 1048512,
      "componentType": 5126,
      "count": 64756,
      "max": [
        1.0,
        1.0,
        1.0,
        1.0
      ],
      "min": [
        0.0,
        0.0,
        0.0,
        1.0
      ],
      "type": "VEC4"
    },
    {
      "bufferView": 0,
      "byteOffset": 1394280,
      "componentType": 5125,
      "count": 339690,
      "type": "SCALAR"
    }
  ],
  "asset": {
    "extras": {
      "author": "aprilpolubiec (https://sketchfab.com/aprilpolubiec)",
      "license": "CC-BY-4.0 (http://creativecommons.org/licenses/by/4.0/)",
      "source": "https://sketchfab.com/3d-models/dumbell-a62b69ee18cd477d92e4655c84a79770",
      "title": "Dumbell"
    },
    "generator": "Sketchfab-12.66.0",
    "version": "2.0"
  },
  "bufferViews": [
    {
      "buffer": 0,
      "byteLength": 2753040,
      "name": "floatBufferViews",
      "target": 34963
    },
    {
      "buffer": 0,
      "byteLength": 3126912,
      "byteOffset": 2753040,
      "byteStride": 12,
      "name": "floatBufferViews",
      "target": 34962
    },
    {
      "buffer": 0,
      "byteLength": 2084608,
      "byteOffset": 5879952,
      "byteStride": 16,
      "name": "floatBufferViews",
      "target": 34962
    }
  ],
  "buffers": [
    {
      "byteLength": 7964560,
      "uri": "scene.bin"
    }
  ],
  "extensionsRequired": [
    "KHR_materials_pbrSpecularGlossiness"
  ],
  "extensionsUsed": [
    "KHR_materials_pbrSpecularGlossiness"
  ],
  "materials": [
    {
      "doubleSided": true,
      "extensions": {
        "KHR_materials_pbrSpecularGlossiness": {
          "diffuseFactor": [
            0.8407739452419605,
            0.8407739452419605,
            0.8407739452419605,
            1.0
          ],
          "glossinessFactor": 0.652288577178678,
          "specularFactor": [
            0.03819108768217719,
            0.03819108768217719,
            0.03819108768217719
          ]
        }
      },
      "name": "Scene_-_Root"
    }
  ],
  "meshes": [
    {
      "name": "Object_0",
      "primitives": [
        {
          "attributes": {
            "COLOR_0": 2,
            "NORMAL": 1,
            "POSITION": 0
          },
          "indices": 3,
          "material": 0,
          "mode": 4
        }
      ]
    },
    {
      "name": "Object_1",
      "primitives": [
        {
          "attributes": {
            "COLOR_0": 6,
            "NORMAL": 5,
            "POSITION": 4
          },
          "indices": 7,
          "material": 0,
          "mode": 4
        }
      ]
    }
  ],
  "nodes": [
    {
      "children": [
        1
      ],
      "matrix": [
        -0.9800750613212585,
        -0.010866589844226794,
        -0.19833001494407654,
        0.0,
        -0.19862748682498932,
        0.05361832678318002,
        0.9786072969436646,
        0.0,
        5.984795992119984e-17,
        0.9985023736953735,
        -0.054708387702703254,
        0.0,
        0.012970644980669022,
        0.06036692485213281,
        -0.061417303979396806,
        1.0
      ],
      "name": "Sketchfab_model"
    },
    {
      "children": [
        2,
        3
      ],
      "name": "Geode"
    },
    {
      "mesh": 0,
      "name": "Object_2"
    },
    {
      "mesh": 1,
      "name": "Object_3"
    }
  ],
  "scene": 0,
  "scenes": [
    {
      "name": "Sketchfab_Scene",
      "nodes": [
        0
      ]
    }
  ]
}
