{
  "accessors": [
    {
      "bufferView": 2,
      "componentType": 5126,
      "count": 65532,
      "max": [
        2.784043788909912,
        -9.888733863830566,
        7.919379234313965
      ],
      "min": [
        -1.7317203283309937,
        -22.620920181274414,
        -1.987265706062317
      ],
      "type": "VEC3"
    },
    {
      "bufferView": 2,
      "byteOffset": 786384,
      "componentType": 5126,
      "count": 65532,
      "max": [
        0.9999999403953552,
        0.9998480081558228,
        0.999927282333374
      ],
      "min": [
        -0.9999813437461853,
        -0.9998573064804077,
        -0.9998226165771484
      ],
      "type": "VEC3"
    },
    {
      "bufferView": 1,
      "componentType": 5126,
      "count": 65532,
      "max": [
        0.9997959733009338,
        0.8839110136032104
      ],
      "min": [
        0.0010989999864250422,
        0.08199299871921539
      ],
      "type": "VEC2"
    },
    {
      "bufferView": 0,
      "componentType": 5125,
      "count": 302841,
      "type": "SCALAR"
    },
    {
      "bufferView": 2,
      "byteOffset": 1572768,
      "componentType": 5126,
      "count": 65532,
      "max": [
        2.7651960849761963,
        -9.335412979125977,
        6.778711795806885
      ],
      "min": [
        -2.045123338699341,
        -21.149808883666992,
        -3.4488942623138428
      ],
      "type": "VEC3"
    },
    {
      "bufferView": 2,
      "byteOffset": 2359152,
      "componentType": 5126,
      "count": 65532,
      "max": [
        0.9999979138374329,
        0.9999967217445374,
        0.9997366070747375
      ],
      "min": [
        -0.999997615814209,
        -0.9999988675117493,
        -0.9999960660934448
      ],
      "type": "VEC3"
    },
    {
      "bufferView": 1,
      "byteOffset": 524256,
      "componentType": 5126,
      "count": 65532,
      "max": [
        0.9997910261154175,
        0.8841549754142761
      ],
      "min": [
        0.00012199999764561653,
        0.0002099999983329326
      ],
      "type": "VEC2"
    },
    {
      "bufferView": 0,
      "byteOffset": 1211364,
      "componentType": 5125,
      "count": 289947,
      "type": "SCALAR"
    },
    {
      "bufferView": 2,
      "byteOffset": 3145536,
      "componentType": 5126,
      "count": 65532,
      "max": [
        2.565455198287964,
        -9.335412979125977,
        8.167543411254883
      ],
      "min": [
        -2.27115797996521,
        -21.154579162597656,
        -3.4661381244659424
      ],
      "type": "VEC3"
    },
    {
      "bufferView": 2,
      "byteOffset": 3931920,
      "componentType": 5126,
      "count": 65532,
      "max": [
        0.9999793171882629,
        0.9999992847442627,
        0.999927282333374
      ],
      "min": [
        -0.9999994039535522,
        -0.9999983906745911,
        -0.9999940395355225
      ],
      "type": "VEC3"
    },
    {
      "bufferView": 1,
      "byteOffset": 1048512,
      "componentType": 5126,
      "count": 65532,
      "max": [
        0.9997199773788452,
        0.8841549754142761
      ],
      "min": [
        0.00012199999764561653,
        0.0003969999961555004
      ],
      "type": "VEC2"
    },
    {
      "bufferView": 0,
      "byteOffset": 2371152,
      "componentType": 5125,
      "count": 277839,
      "type": "SCALAR"
    },
    {
      "bufferView": 2,
      "byteOffset": 4718304,
      "componentType": 5126,
      "count": 65532,
      "max": [
        2.794302463531494,
        -9.335412979125977,
        8.401956558227539
      ],
      "min": [
        -1.9747180938720703,
        -21.1412410736084,
        -3.4653217792510986
      ],
      "type": "VEC3"
    },
    {
      "bufferView": 2,
      "byteOffset": 5504688,
      "componentType": 5126,
      "count": 65532,
      "max": [
        0.9999988079071045,
        0.9999999403953552,
        0.9999749660491943
      ],
      "min": [
        -0.9999945759773254,
        -0.9999968409538269,
        -0.9999921321868896
      ],
      "type": "VEC3"
    },
    {
      "bufferView": 1,
      "byteOffset": 1572768,
      "componentType": 5126,
      "count": 65532,
      "max": [
        0.9997360110282898,
        0.8841549754142761
      ],
      "min": [
        0.00012199999764561653,
        0.0003659999929368496
      ],
      "type": "VEC2"
    },
    {
      "bufferView": 0,
      "byteOffset": 3482508,
      "componentType": 5125,
      "count": 271836,
      "type": "SCALAR"
    },
    {
      "bufferView": 2,
      "byteOffset": 6291072,
      "componentType": 5126,
      "count": 65532,
      "max": [
        2.703193187713623,
        -9.335412979125977,
        8.105508804321289
      ],
      "min": [
        -2.2323851585388184,
        -21.146169662475586,
        -2.181401491165161
      ],
      "type": "VEC3"
    },
    {
      "bufferView": 2,
      "byteOffset": 7077456,
      "componentType": 5126,
      "count": 65532,
      "max": [
        0.999987006187439,
        0.999965250492096,
        0.9999725818634033
      ],
      "min": [
        -0.9999998807907104,
        -0.9999914765357971,
        -0.9999882578849792
      ],
      "type": "VEC3"
    },
    {
      "bufferView": 1,
      "byteOffset": 2097024,
      "componentType": 5126,
      "count": 65532,
      "max": [
        0.9997599720954895,
        0.8841549754142761
      ],
      "min": [
        0.00012199999764561653,
        0.008352999575436115
      ],
      "type": "VEC2"
    },
    {
      "bufferView": 0,
      "byteOffset": 4569852,
      "componentType": 5125,
      "count": 253752,
      "type": "SCALAR"
    },
    {
      "bufferView": 2,
      "byteOffset": 7863840,
      "componentType": 5126,
      "count": 65532,
      "max": [
        2.775447130203247,
        -9.335412979125977,
        8.401956558227539
      ],
      "min": [
        -2.2085230350494385,
        -21.14147186279297,
        -3.46563982963562
      ],
      "type": "VEC3"
    },
    {
      "bufferView": 2,
      "byteOffset": 8650224,
      "componentType": 5126,
      "count": 65532,
      "max": [
        0.9999929070472717,
        0.9999983310699463,
        0.9999967813491821
      ],
      "min": [
        -0.999997615814209,
        -0.9999950528144836,
        -0.9999960064888
      ],
      "type": "VEC3"
    },
    {
      "bufferView": 1,
      "byteOffset": 2621280,
      "componentType": 5126,
      "count": 65532,
      "max": [
        0.9997850060462952,
        0.8841549754142761
      ],
      "min": [
        0.00012199999764561653,
        0.00037900000461377203
      ],
      "type": "VEC2"
    },
    {
      "bufferView": 0,
      "byteOffset": 5584860,
      "componentType": 5125,
      "count": 250917,
      "type": "SCALAR"
    },
    {
      "bufferView": 2,
      "byteOffset": 9436608,
      "componentType": 5126,
      "count": 17663,
      "max": [
        2.0414316654205322,
        -11.633776664733887,
        7.911206245422363
      ],
      "min": [
        -2.196944236755371,
        -21.15361785888672,
        0.09822530299425125
      ],
      "type": "VEC3"
    },
    {
      "bufferView": 2,
      "byteOffset": 9648564,
      "componentType": 5126,
      "count": 17663,
      "max": [
        0.9998477101325989,
        0.9998547434806824,
        0.9997621178627014
      ],
      "min": [
        -0.999997615814209,
        -0.9966711401939392,
        -0.9997472763061523
      ],
      "type": "VEC3"
    },
    {
      "bufferView": 1,
      "byteOffset": 3145536,
      "componentType": 5126,
      "count": 17663,
      "max": [
        0.9984670281410217,
        0.8839110136032104
      ],
      "min": [
        0.00012199999764561653,
        0.0003800000122282654
      ],
      "type": "VEC2"
    },
    {
      "bufferView": 0,
      "byteOffset": 6588528,
      "componentType": 5125,
      "count": 61203,
      "type": "SCALAR"
    },
    {
      "bufferView": 2,
      "byteOffset": 9860520,
      "componentType": 5126,
      "count": 24368,
      "max": [
        2.79329252243042,
        -9.335409164428711,
        8.393178939819336
      ],
      "min": [
        -2.217059850692749,
        -9.33549976348877,
        -3.463700532913208
      ],
      "type": "VEC3"
    },
    {
      "bufferView": 2,
      "byteOffset": 10152936,
      "componentType": 5126,
      "count": 24368,
      "max": [
        0.9999743103981018,
        1.0,
        0.9999058246612549
      ],
      "min": [
        -0.9999956488609314,
        -0.2444876730442047,
        -0.9999639391899109
      ],
      "type": "VEC3"
    },
    {
      "bufferView": 1,
      "byteOffset": 3286840,
      "componentType": 5126,
      "count": 24368,
      "max": [
        0.0,
        0.0
      ],
      "min": [
        0.0,
        0.0
      ],
      "type": "VEC2"
    },
    {
      "bufferView": 0,
      "byteOffset": 6833340,
      "componentType": 5125,
      "count": 141417,
      "type": "SCALAR"
    }
  ],
  "asset": {
    "extras": {
      "author": "noe-3d.at (https://sketchfab.com/www.noe-3d.at)",
      "license": "CC0-1.0 (http://creativecommons.org/publicdomain/zero/1.0/)",
      "source": "https://sketchfab.com/3d-models/sphinx-d94a2dfbf413465395fde1bd17981b85",
      "title": "Sphinx"
    },
    "generator": "Sketchfab-12.63.0",
    "version": "2.0"
  },
  "bufferViews": [
    {
      "buffer": 0,
      "byteLength": 7399008,
      "name": "floatBufferViews",
      "target": 34963
    },
    {
      "buffer": 0,
      "byteLength": 3481784,
      "byteOffset": 7399008,
      "byteStride": 8,
      "name": "floatBufferViews",
      "target": 34962
    },
    {
      "buffer": 0,
      "byteLength": 10445352,
      "byteOffset": 10880792,
      "byteStride": 12,
      "name": "floatBufferViews",
      "target": 34962
    }
  ],
  "buffers": [
    {
      "byteLength": 21326144,
      "uri": "scene.bin"
    }
  ],
  "images": [
    {
      "uri": "textures/Sphinx2_Material_u1_v1_baseColor.png"
    }
  ],
  "materials": [
    {
      "doubleSided": true,
      "name": "Sphinx2_Material_u1_v1",
      "pbrMetallicRoughness": {
        "baseColorTexture": {
          "index": 0
        },
        "metallicFactor": 0.07058015075973582,
        "roughnessFactor": 0.8919104718959281
      }
    }
  ],
  "meshes": [
    {
      "name": "Object_0",
      "primitives": [
        {
          "attributes": {
            "NORMAL": 1,
            "POSITION": 0,
            "TEXCOORD_0": 2
          },
          "indices": 3,
          "material": 0,
          "mode": 4
        }
      ]
    },
    {
      "name": "Object_1",
      "primitives": [
        {
          "attributes": {
            "NORMAL": 5,
            "POSITION": 4,
            "TEXCOORD_0": 6
          },
          "indices": 7,
          "material": 0,
          "mode": 4
        }
      ]
    },
    {
      "name": "Object_2",
      "primitives": [
        {
          "attributes": {
            "NORMAL": 9,
            "POSITION": 8,
            "TEXCOORD_0": 10
          },
          "indices": 11,
          "material": 0,
          "mode": 4
        }
      ]
    },
    {
      "name": "Object_3",
      "primitives": [
        {
          "attributes": {
            "NORMAL": 13,
            "POSITION": 12,
            "TEXCOORD_0": 14
          },
          "indices": 15,
          "material": 0,
          "mode": 4
        }
      ]
    },
    {
      "name": "Object_4",
      "primitives": [
        {
          "attributes": {
            "NORMAL": 17,
            "POSITION": 16,
            "TEXCOORD_0": 18
          },
          "indices": 19,
          "material": 0,
          "mode": 4
        }
      ]
    },
    {
      "name": "Object_5",
      "primitives": [
        {
          "attributes": {
            "NORMAL": 21,
            "POSITION": 20,
            "TEXCOORD_0": 22
          },
          "indices": 23,
          "material": 0,
          "mode": 4
        }
      ]
    },
    {
      "name": "Object_6",
      "primitives": [
        {
          "attributes": {
            "NORMAL": 25,
            "POSITION": 24,
            "TEXCOORD_0": 26
          },
          "indices": 27,
          "material": 0,
          "mode": 4
        }
      ]
    },
    {
      "name": "Object_7",
      "primitives": [
        {
          "attributes": {
            "NORMAL": 29,
            "POSITION": 28,
            "TEXCOORD_0": 30
          },
          "indices": 31,
          "material": 0,
          "mode": 4
        }
      ]
    }
  ],
  "nodes": [
    {
      "children": [
        1
      ],
      "matrix": [
        -0.002599824613933266,
        1.2279569027502786e-05,
        -0.13827707981995552,
        0.0,
        9.910145852456628e-05,
        -0.13830148856603586,
        -1.4144997454774515e-05,
        0.0,
        -0.13827704684630326,
        -9.934984769455434e-05,
        0.0025998150824869115,
        0.0,
        2.7453982830047607,
        -13.5084981918335,
        16.191648483276364,
        1.0
      ],
      "name": "Sketchfab_model"
    },
    {
      "children": [
        2,
        3,
        4,
        5,
        6,
        7,
        8,
        9
      ],
      "name": "Sphinx2_C.obj.cleaner.materialmerger.gles"
    },
    {
      "mesh": 0,
      "name": "Object_2"
    },
    {
      "mesh": 1,
      "name": "Object_3"
    },
    {
      "mesh": 2,
      "name": "Object_4"
    },
    {
      "mesh": 3,
      "name": "Object_5"
    },
    {
      "mesh": 4,
      "name": "Object_6"
    },
    {
      "mesh": 5,
      "name": "Object_7"
    },
    {
      "mesh": 6,
      "name": "Object_8"
    },
    {
      "mesh": 7,
      "name": "Object_9"
    }
  ],
  "samplers": [
    {
      "magFilter": 9729,
      "minFilter": 9987,
      "wrapS": 10497,
      "wrapT": 10497
    }
  ],
  "scene": 0,
  "scenes": [
    {
      "name": "Sketchfab_Scene",
      "nodes": [
        0
      ]
    }
  ],
  "textures": [
    {
      "sampler": 0,
      "source": 0
    }
  ]
}
